# xmcd
#
# Track frame offsets:
#	150
#	1391
#	18980
#	35523
#	58194
#	69784
#	92583
#	112709
#	131381
#	151752
#	170199
#	190733
#	212086
#	233057
#	252768
#
# Disc length: 3622 seconds
#
# Revision: 1
# Processed by: cddbd v1.4PL0 Copyright (c) Steve Scherf et al.
# Submitted via: audiograbber 1.82.01
#
DISCID=b50e240f
DTITLE=Sabrina Setlur - Aus der Sicht und mit den Worten von ....
DYEAR=1900
DGENRE=
TTITLE0=i got sabrina comin up
TTITLE1=setlur 2000
TTITLE2=ohne worte
TTITLE3=ganz in blau
TTITLE4=mo's nachricht
TTITLE5=no test the empire
TTITLE6=ich leb für dich
TTITLE7=wer bist du
TTITLE8=lieder gegen schmerz
TTITLE9=hija
TTITLE10=alles wird sich ändern
TTITLE11=sprich mit sabs
TTITLE12=all meine liebe
TTITLE13=letzte bitte
TTITLE14=aus der sicht und mit den worten von...
EXTD=
EXTT0=
EXTT1=
EXTT2=
EXTT3=
EXTT4=
EXTT5=
EXTT6=
EXTT7=
EXTT8=
EXTT9=
EXTT10=
EXTT11=
EXTT12=
EXTT13=
EXTT14=
PLAYORDER=
